<svg width="14" height="14" viewBox="0 0 14 14" fill="none" xmlns="http://www.w3.org/2000/svg">
<g id="Figma">
<path id="Vector" d="M4.6849 14C5.9729 14 7.01823 12.9547 7.01823 11.6667V9.33333H4.6849C3.3969 9.33333 2.35156 10.3787 2.35156 11.6667C2.35156 12.9547 3.3969 14 4.6849 14Z" fill="#0ACF83"/>
<path id="Vector_2" d="M2.35156 7.00001C2.35156 5.71201 3.3969 4.66667 4.6849 4.66667H7.01823V9.33334H4.6849C3.3969 9.33334 2.35156 8.28801 2.35156 7.00001Z" fill="#A259FF"/>
<path id="Vector_3" d="M2.35156 2.33333C2.35156 1.04533 3.3969 0 4.6849 0H7.01823V4.66667H4.6849C3.3969 4.66667 2.35156 3.62133 2.35156 2.33333Z" fill="#F24E1E"/>
<path id="Vector_4" d="M7.01831 0H9.35164C10.6396 0 11.685 1.04533 11.685 2.33333C11.685 3.62133 10.6396 4.66667 9.35164 4.66667H7.01831V0Z" fill="#FF7262"/>
<path id="Vector_5" d="M11.685 7.00001C11.685 8.28801 10.6396 9.33334 9.35164 9.33334C8.06364 9.33334 7.01831 8.28801 7.01831 7.00001C7.01831 5.71201 8.06364 4.66667 9.35164 4.66667C10.6396 4.66667 11.685 5.71201 11.685 7.00001Z" fill="#1ABCFE"/>
</g>
</svg>
