<svg width="14" height="14" viewBox="0 0 14 14" fill="none" xmlns="http://www.w3.org/2000/svg">
<g id="Google Chrome">
<path id="Shape" fill-rule="evenodd" clip-rule="evenodd" d="M6.98945 0.165943C6.98945 0.165943 10.9964 -0.0138913 13.1207 4.01364H6.64851C6.64851 4.01364 5.42714 3.9743 4.38373 5.45606C4.08401 6.07798 3.7618 6.71864 4.12335 7.98123C3.60258 7.09892 1.3584 3.19127 1.3584 3.19127C1.3584 3.19127 2.94131 0.325171 6.98945 0.165943Z" fill="#EF3F36"/>
<path id="Shape_2" fill-rule="evenodd" clip-rule="evenodd" d="M12.9128 10.3902C12.9128 10.3902 11.0639 13.9513 6.51562 13.7752C7.07761 12.803 9.75264 8.17042 9.75264 8.17042C9.75264 8.17042 10.3989 7.13262 9.63649 5.48789C9.24873 4.91655 8.85347 4.31897 7.57964 4.00052C8.60432 3.99115 13.1095 4.00052 13.1095 4.00052C13.1095 4.00052 14.7974 6.8048 12.9128 10.3902Z" fill="#FCD900"/>
<path id="Shape_3" fill-rule="evenodd" clip-rule="evenodd" d="M1.09422 10.4184C1.09422 10.4184 -1.06566 7.0371 1.3621 3.18565C1.92221 4.15788 4.59724 8.79048 4.59724 8.79048C4.59724 8.79048 5.17421 9.86948 6.97817 10.0306C7.66566 9.98001 8.38125 9.93692 9.2954 8.99467C8.79149 9.88634 6.53046 13.7827 6.53046 13.7827C6.53046 13.7827 3.25598 13.8427 1.09422 10.4184Z" fill="#61BC5B"/>
<path id="Shape_4" fill-rule="evenodd" clip-rule="evenodd" d="M6.51367 13.809L7.42408 10.01C7.42408 10.01 8.42441 9.9313 9.26363 9.01152C8.74286 9.92755 6.51367 13.809 6.51367 13.809Z" fill="#5AB055"/>
<path id="Shape_5" fill-rule="evenodd" clip-rule="evenodd" d="M3.93994 7.02961C3.93994 5.3549 5.29806 3.99678 6.97277 3.99678C8.64747 3.99678 10.0056 5.3549 10.0056 7.02961C10.0056 8.70431 8.64747 10.0624 6.97277 10.0624C5.29806 10.0606 3.93994 8.70431 3.93994 7.02961Z" fill="white"/>
<path id="Shape_6" fill-rule="evenodd" clip-rule="evenodd" d="M4.44751 7.02959C4.44751 5.63588 5.57709 4.50443 6.97268 4.50443C8.36639 4.50443 9.49785 5.63401 9.49785 7.02959C9.49785 8.42331 8.36827 9.55476 6.97268 9.55476C5.57897 9.55476 4.44751 8.42331 4.44751 7.02959Z" fill="url(#paint0_linear_0_302)"/>
<path id="Shape_7" fill-rule="evenodd" clip-rule="evenodd" d="M13.1075 4.00239L9.35912 5.102C9.35912 5.102 8.79339 4.27214 7.57764 4.00239C8.63229 3.99677 13.1075 4.00239 13.1075 4.00239Z" fill="#EACA05"/>
<path id="Shape_8" fill-rule="evenodd" clip-rule="evenodd" d="M4.05029 7.8426C3.5239 6.93032 1.3584 3.19127 1.3584 3.19127L4.13459 5.93748C4.13459 5.93748 3.84985 6.52382 3.95662 7.36304L4.05029 7.8426Z" fill="#DF3A32"/>
</g>
<defs>
<linearGradient id="paint0_linear_0_302" x1="4.54122" y1="4.54007" x2="4.54122" y2="9.40274" gradientUnits="userSpaceOnUse">
<stop stop-color="#86BBE5"/>
<stop offset="1" stop-color="#1072BA"/>
</linearGradient>
</defs>
</svg>
