<svg width="14" height="14" viewBox="0 0 14 14" fill="none" xmlns="http://www.w3.org/2000/svg">
<g id="Group">
<mask id="mask0_135_26" style="mask-type:alpha" maskUnits="userSpaceOnUse" x="0" y="0" width="14" height="14">
<g id="mask 2">
<path id="Vector" d="M9.88901 13.8143C10.1087 13.8999 10.3591 13.8944 10.5808 13.7878L13.452 12.4062C13.7537 12.2611 13.9455 11.9557 13.9455 11.6207V2.25296C13.9455 1.91799 13.7537 1.61265 13.452 1.46747L10.5808 0.0858878C10.2899 -0.054109 9.94937 -0.0198185 9.69405 0.165822C9.65755 0.192342 9.62279 0.221951 9.59022 0.254581L4.09372 5.26912L1.69957 3.45177C1.47669 3.28259 1.16496 3.29645 0.957965 3.48474L0.190082 4.18324C-0.0631107 4.41356 -0.0634011 4.81188 0.189455 5.04257L2.26574 6.9368L0.189455 8.83105C-0.0634011 9.06175 -0.0631107 9.46007 0.190082 9.69039L0.957965 10.3889C1.16496 10.5772 1.47669 10.591 1.69957 10.4219L4.09372 8.60449L9.59022 13.6191C9.67716 13.706 9.77924 13.7716 9.88901 13.8143ZM10.4613 3.77102L6.29068 6.9368L10.4613 10.1026V3.77102Z" fill="white"/>
</g>
</mask>
<g mask="url(#mask0_135_26)">
<path id="Vector_2" d="M13.4605 1.46963L10.5871 0.0861441C10.2545 -0.0739942 9.85705 -0.00644428 9.59601 0.254577L0.18957 8.83106C-0.0634397 9.06176 -0.0631488 9.46008 0.190197 9.6904L0.958545 10.3889C1.16567 10.5772 1.4776 10.591 1.7006 10.4219L13.0281 1.82855C13.4081 1.54026 13.954 1.8113 13.954 2.2883V2.25494C13.954 1.92011 13.7622 1.61489 13.4605 1.46963Z" fill="#0065A9"/>
<path id="Vector_3" d="M13.4605 12.404L10.5871 13.7875C10.2545 13.9476 9.85705 13.88 9.59601 13.6191L0.18957 5.04257C-0.0634397 4.81188 -0.0631488 4.41355 0.190197 4.18323L0.958545 3.48473C1.16567 3.29644 1.4776 3.28258 1.7006 3.45176L13.0281 12.0451C13.4081 12.3333 13.954 12.0623 13.954 11.5853V11.6187C13.954 11.9535 13.7622 12.2587 13.4605 12.404Z" fill="#007ACC"/>
<path id="Vector_4" d="M10.5781 13.7886C10.2455 13.9486 9.84796 13.881 9.58691 13.6199C9.90853 13.9416 10.4585 13.7137 10.4585 13.2589V0.616476C10.4585 0.161611 9.90853 -0.0661884 9.58691 0.255451C9.84796 -0.00559394 10.2455 -0.0732392 10.5781 0.0867578L13.451 1.46835C13.7529 1.61352 13.9449 1.91886 13.9449 2.25383V11.6216C13.9449 11.9566 13.7529 12.2619 13.451 12.4071L10.5781 13.7886Z" fill="#1F9CF0"/>
<path id="Vector_5" d="M9.88903 13.8142C10.1087 13.8997 10.3591 13.8943 10.5808 13.7876L13.4519 12.406C13.7537 12.2608 13.9455 11.9555 13.9455 11.6205V2.25279C13.9455 1.91782 13.7537 1.61248 13.452 1.46731L10.5808 0.0857203C10.2899 -0.0542769 9.94938 -0.0199864 9.69401 0.165654C9.65756 0.192174 9.62281 0.221783 9.59018 0.254413L4.09372 5.26895L1.69956 3.4516C1.4767 3.28242 1.16496 3.29628 0.957962 3.48457L0.190082 4.18307C-0.0631107 4.41339 -0.0634011 4.81172 0.189455 5.04241L2.26575 6.93664L0.189455 8.83089C-0.0634011 9.06159 -0.0631107 9.45991 0.190082 9.69023L0.957962 10.3887C1.16496 10.577 1.4767 10.5909 1.69956 10.4217L4.09372 8.60433L9.59018 13.6189C9.67712 13.7059 9.77926 13.7714 9.88903 13.8142ZM10.4613 3.77085L6.2907 6.93664L10.4613 10.1024V3.77085Z" fill="url(#paint0_linear_135_26)" fill-opacity="0.25"/>
</g>
</g>
<defs>
<linearGradient id="paint0_linear_135_26" x1="6.97278" y1="-0.000167901" x2="6.97278" y2="13.8735" gradientUnits="userSpaceOnUse">
<stop stop-color="white"/>
<stop offset="1" stop-color="white" stop-opacity="0"/>
</linearGradient>
</defs>
</svg>
