<svg width="14" height="14" viewBox="0 0 14 14" fill="none" xmlns="http://www.w3.org/2000/svg">
<g id="Javascript" clip-path="url(#clip0_0_279)">
<path id="Shape" fill-rule="evenodd" clip-rule="evenodd" d="M0.164062 0.164062H13.8359V13.8359H0.164062V0.164062Z" fill="#F7DF1E"/>
<path id="Shape_2" fill-rule="evenodd" clip-rule="evenodd" d="M3.75881 11.5893L4.80508 10.9561C5.00692 11.314 5.19054 11.6168 5.63097 11.6168C6.05315 11.6168 6.31931 11.4516 6.31931 10.8093V6.44077H7.60412V10.8274C7.60412 12.1581 6.82409 12.7639 5.68605 12.7639C4.65825 12.7639 4.06163 12.2315 3.75879 11.5892" fill="black"/>
<path id="Shape_3" fill-rule="evenodd" clip-rule="evenodd" d="M8.302 11.4516L9.34814 10.8459C9.62353 11.2956 9.98145 11.626 10.6147 11.626C11.147 11.626 11.4865 11.3598 11.4865 10.9927C11.4865 10.5522 11.1378 10.3962 10.5504 10.1393L10.2293 10.0015C9.30231 9.60698 8.6874 9.11141 8.6874 8.06516C8.6874 7.10153 9.42158 6.36731 10.5688 6.36731C11.3856 6.36731 11.9729 6.65184 12.3951 7.39522L11.3947 8.0376C11.1744 7.643 10.9359 7.48701 10.5688 7.48701C10.1925 7.48701 9.95391 7.72562 9.95391 8.0376C9.95391 8.42306 10.1925 8.57912 10.7431 8.81774L11.0643 8.9554C12.1564 9.42347 12.7713 9.90064 12.7713 10.9744C12.7713 12.1308 11.8628 12.764 10.6422 12.764C9.44916 12.764 8.67824 12.195 8.30202 11.4516" fill="black"/>
</g>
<defs>
<clipPath id="clip0_0_279">
<rect width="14" height="14" fill="white"/>
</clipPath>
</defs>
</svg>
