<svg width="14" height="14" viewBox="0 0 14 14" fill="none" xmlns="http://www.w3.org/2000/svg">
<g id="Nodejs" clip-path="url(#clip0_0_296)">
<path id="Shape" fill-rule="evenodd" clip-rule="evenodd" d="M7.01239 13.8106C6.82434 13.8106 6.64882 13.7604 6.48584 13.6727L4.81842 12.6822C4.56768 12.5443 4.69305 12.4942 4.76827 12.4691C5.10677 12.3563 5.16946 12.3312 5.52049 12.1306C5.5581 12.1055 5.60825 12.1181 5.64586 12.1432L6.92464 12.9079C6.97478 12.933 7.03747 12.933 7.07508 12.9079L12.0773 10.0119C12.1275 9.98679 12.1526 9.93664 12.1526 9.87396V4.09441C12.1526 4.03172 12.1275 3.98157 12.0773 3.9565L7.07508 1.07299C7.02493 1.04792 6.96225 1.04792 6.92464 1.07299L1.92238 3.9565C1.87223 3.98157 1.84716 4.04426 1.84716 4.09441V9.87396C1.84716 9.9241 1.87223 9.98679 1.92238 10.0119L3.28891 10.8017C4.02859 11.1778 4.49246 10.739 4.49246 10.3002V4.59589C4.49246 4.52066 4.55515 4.44544 4.6429 4.44544H5.28229C5.35751 4.44544 5.43273 4.50813 5.43273 4.59589V10.3002C5.43273 11.2906 4.89364 11.8673 3.95337 11.8673C3.66502 11.8673 3.43935 11.8673 2.79997 11.5539L1.48358 10.8017C1.15762 10.6136 0.957031 10.2626 0.957031 9.88649V4.10694C0.957031 3.73083 1.15762 3.3798 1.48358 3.19174L6.48584 0.295701C6.79927 0.120183 7.22552 0.120183 7.53895 0.295701L12.5412 3.19174C12.8672 3.3798 13.0678 3.73083 13.0678 4.10694V9.88649C13.0678 10.2626 12.8672 10.6136 12.5412 10.8017L7.53895 13.6977C7.37597 13.773 7.18791 13.8106 7.01239 13.8106ZM8.55444 9.83635C6.36047 9.83635 5.90914 8.83339 5.90914 7.98087C5.90914 7.90565 5.97183 7.83043 6.05958 7.83043H6.71151C6.78673 7.83043 6.84941 7.88058 6.84941 7.9558C6.94971 8.62026 7.23806 8.94622 8.56698 8.94622C9.62009 8.94622 10.0714 8.70802 10.0714 8.14385C10.0714 7.81789 9.94605 7.57969 8.3037 7.41671C6.93717 7.2788 6.08466 6.97791 6.08466 5.8872C6.08466 4.8717 6.93717 4.26992 8.36639 4.26992C9.97112 4.26992 10.761 4.82155 10.8612 6.0251C10.8612 6.06271 10.8487 6.10032 10.8236 6.13794C10.7986 6.16301 10.761 6.18808 10.7233 6.18808H10.0714C10.0087 6.18808 9.94605 6.13794 9.93351 6.07525C9.78307 5.38572 9.39442 5.16005 8.36639 5.16005C7.21299 5.16005 7.07508 5.56123 7.07508 5.86212C7.07508 6.22569 7.23806 6.33853 8.79265 6.53912C10.3347 6.73971 11.0618 7.02806 11.0618 8.10624C11.0493 9.2095 10.1466 9.83635 8.55444 9.83635Z" fill="#539E43"/>
</g>
<defs>
<clipPath id="clip0_0_296">
<rect width="14" height="14" fill="white"/>
</clipPath>
</defs>
</svg>
