<svg width="14" height="14" viewBox="0 0 14 14" fill="none" xmlns="http://www.w3.org/2000/svg">
<g id="React" clip-path="url(#clip0_0_299)">
<path id="Vector" d="M11.5108 5.39061C11.3656 5.34382 11.2151 5.29955 11.0601 5.25769C11.0856 5.1604 11.109 5.06438 11.1298 4.96998C11.4709 3.42002 11.2479 2.17135 10.4862 1.76024C9.75583 1.36604 8.5614 1.77706 7.35508 2.75966C7.23908 2.85415 7.12276 2.95418 7.00648 3.05903C6.929 2.98966 6.85165 2.92263 6.7745 2.85851C5.51024 1.80784 4.24302 1.36508 3.4821 1.77738C2.75244 2.17273 2.53636 3.34659 2.84345 4.81551C2.8731 4.95739 2.90777 5.10228 2.94697 5.24959C2.76762 5.29725 2.59448 5.34805 2.42881 5.40209C0.946604 5.88576 0 6.6438 0 7.43008C0 8.24216 1.01618 9.05669 2.56001 9.55058C2.68185 9.58956 2.80826 9.62641 2.93854 9.6614C2.89626 9.82073 2.85947 9.97686 2.8286 10.1291C2.53579 11.5726 2.76445 12.7187 3.49216 13.1115C4.24382 13.5172 5.50531 13.1002 6.73368 12.0952C6.83077 12.0158 6.92821 11.9315 7.02582 11.8432C7.15233 11.9573 7.27865 12.0652 7.4043 12.1664C8.59412 13.1247 9.76926 13.5117 10.4963 13.1178C11.2472 12.7109 11.4912 11.4797 11.1744 9.98171C11.1502 9.8673 11.1221 9.75043 11.0904 9.63147C11.179 9.60696 11.266 9.58165 11.3508 9.55534C12.9558 9.05763 14 8.25301 14 7.43008C14 6.64095 13.0229 5.87781 11.5108 5.39061ZM11.1627 9.02399C11.0862 9.04771 11.0076 9.07064 10.9276 9.09287C10.7504 8.56786 10.5113 8.0096 10.2186 7.43281C10.4979 6.86977 10.7278 6.31864 10.9 5.79704C11.0432 5.83582 11.1822 5.87674 11.3161 5.91991C12.6117 6.33734 13.4019 6.95453 13.4019 7.43008C13.4019 7.93664 12.5485 8.59422 11.1627 9.02399ZM10.5877 10.0904C10.7278 10.7528 10.7478 11.3517 10.655 11.8198C10.5716 12.2405 10.4039 12.521 10.1966 12.6333C9.75541 12.8724 8.81189 12.5617 7.79434 11.7421C7.67769 11.6481 7.5602 11.5478 7.44233 11.4416C7.83681 11.0378 8.23106 10.5684 8.61585 10.047C9.29265 9.99081 9.93207 9.89891 10.5119 9.77345C10.5405 9.88128 10.5659 9.98703 10.5877 10.0904ZM4.77292 12.592C4.34185 12.7345 3.99853 12.7386 3.791 12.6266C3.3494 12.3882 3.16581 11.468 3.41623 10.2335C3.44491 10.0922 3.47905 9.94696 3.5184 9.79852C4.09191 9.91722 4.72664 10.0026 5.40506 10.0541C5.79244 10.5643 6.19808 11.0332 6.60686 11.4438C6.51755 11.5245 6.42859 11.6013 6.34012 11.6737C5.79695 12.1181 5.25262 12.4334 4.77292 12.592ZM2.75344 9.02089C2.07079 8.80251 1.50703 8.51867 1.12059 8.20895C0.773361 7.93062 0.598051 7.6543 0.598051 7.43008C0.598051 6.95294 1.35808 6.34434 2.62568 5.93068C2.77948 5.88049 2.94049 5.83319 3.10758 5.78876C3.28276 6.32214 3.51257 6.8798 3.7899 7.44371C3.50898 8.01599 3.27591 8.58254 3.099 9.12216C2.97989 9.09012 2.86448 9.05639 2.75344 9.02089ZM3.43039 4.708C3.16728 3.44947 3.34202 2.50008 3.78173 2.26185C4.2501 2.00806 5.28579 2.36991 6.37738 3.27711C6.44715 3.33509 6.5172 3.39578 6.58745 3.45857C6.18069 3.86738 5.77875 4.33279 5.39481 4.83995C4.73638 4.89707 4.10611 4.98883 3.52663 5.1117C3.49019 4.97453 3.45792 4.83976 3.43039 4.708ZM9.46935 6.1037C9.33082 5.87974 9.18861 5.66108 9.04362 5.44839C9.49031 5.50124 9.91828 5.5714 10.3202 5.65725C10.1995 6.0192 10.0491 6.39764 9.87211 6.78559C9.74512 6.55993 9.6108 6.3324 9.46935 6.1037ZM7.00668 3.85863C7.28254 4.13836 7.5588 4.45067 7.83053 4.78952C7.55671 4.77742 7.2795 4.77112 7 4.77112C6.72314 4.77112 6.44798 4.77728 6.17585 4.78917C6.44785 4.45347 6.7265 4.14158 7.00668 3.85863ZM4.52823 6.10758C4.38985 6.33217 4.25802 6.55846 4.13303 6.78517C3.95886 6.39857 3.80987 6.01841 3.68816 5.65133C4.0876 5.56767 4.51355 5.49926 4.9574 5.44741C4.81037 5.66206 4.66698 5.88233 4.52823 6.10753V6.10758ZM4.97018 9.45269C4.51161 9.40481 4.07925 9.33992 3.67991 9.25856C3.80356 8.88493 3.95585 8.49665 4.1337 8.10173C4.25902 8.32828 4.39137 8.55466 4.5306 8.77974H4.53062C4.67244 9.00904 4.81937 9.23365 4.97018 9.45269ZM7.02323 11.041C6.73976 10.7547 6.45702 10.4381 6.18089 10.0975C6.44895 10.1073 6.72224 10.1124 7 10.1124C7.28536 10.1124 7.56745 10.1064 7.84511 10.0948C7.57248 10.4415 7.29722 10.7587 7.02323 11.041ZM9.87781 8.0816C10.0649 8.48079 10.2227 8.86704 10.3479 9.23431C9.94201 9.32098 9.50374 9.39079 9.04198 9.44266C9.18731 9.2271 9.33078 9.00468 9.47175 8.77589C9.61436 8.54442 9.74978 8.3126 9.87781 8.0816ZM8.95369 8.49623C8.73484 8.85139 8.51017 9.19043 8.28207 9.51047C7.86664 9.53827 7.43744 9.55259 7 9.55259C6.56433 9.55259 6.14054 9.53993 5.73245 9.51513C5.49517 9.1909 5.26561 8.85086 5.04816 8.49929H5.04821C4.83133 8.14868 4.63172 7.79511 4.45085 7.44352C4.63167 7.09111 4.83076 6.73714 5.04639 6.38716L5.04634 6.38723C5.26254 6.03632 5.49008 5.69793 5.72518 5.37573C6.14154 5.34627 6.56849 5.3309 6.99998 5.3309H7C7.43343 5.3309 7.86093 5.34639 8.27717 5.3761C8.50867 5.69595 8.73467 6.03324 8.95172 6.3842C9.17124 6.7391 9.37289 7.09072 9.55525 7.43556C9.37344 7.78634 9.17223 8.1415 8.95369 8.49623ZM10.1874 2.2452C10.6563 2.49824 10.8386 3.51877 10.544 4.857C10.5252 4.94239 10.5041 5.02937 10.4811 5.11751C9.90027 4.99207 9.26955 4.89873 8.6092 4.84074C8.22451 4.32801 7.82587 3.86187 7.42573 3.45831C7.53331 3.36145 7.64074 3.26909 7.74772 3.18192C8.78129 2.34003 9.74731 2.00764 10.1874 2.2452ZM7 6.25998C7.69043 6.25998 8.25015 6.78384 8.25015 7.43008C8.25015 8.07631 7.69043 8.60019 7 8.60019C6.30957 8.60019 5.74985 8.07631 5.74985 7.43008C5.74985 6.78384 6.30957 6.25998 7 6.25998Z" fill="#00D8FF"/>
</g>
<defs>
<clipPath id="clip0_0_299">
<rect width="14" height="13.1036" fill="white" transform="translate(0 0.895264)"/>
</clipPath>
</defs>
</svg>
