<svg width="14" height="14" viewBox="0 0 14 14" fill="none" xmlns="http://www.w3.org/2000/svg">
<path id="Shape" fill-rule="evenodd" clip-rule="evenodd" d="M13.7359 6.37633L7.62333 0.264061C7.27156 -0.0880204 6.70059 -0.0880204 6.34837 0.264061L5.07908 1.53337L6.68923 3.14354C7.06342 3.01712 7.49246 3.10191 7.79077 3.40023C8.09046 3.70039 8.17464 4.13312 8.04515 4.50855L9.59692 6.06035C9.97234 5.93101 10.4055 6.01472 10.7054 6.31504C11.1244 6.73394 11.1244 7.41291 10.7054 7.83212C10.2862 8.25133 9.60721 8.25133 9.18785 7.83212C8.87264 7.5166 8.79476 7.05361 8.95436 6.66528L7.5072 5.21809L7.50705 9.02646C7.6092 9.07716 7.70567 9.14459 7.79077 9.22939C8.20982 9.64829 8.20982 10.3273 7.79077 10.7468C7.37156 11.1658 6.6923 11.1658 6.27371 10.7468C5.85466 10.3273 5.85466 9.64829 6.27371 9.22939C6.37724 9.12601 6.49706 9.04782 6.62486 8.99528V5.15142C6.49706 5.09919 6.3774 5.02146 6.27371 4.91731C5.9562 4.60025 5.87986 4.13435 6.04253 3.74448L4.45543 2.15704L0.264171 6.34807C-0.0880571 6.70045 -0.0880571 7.27143 0.264171 7.62352L6.37678 13.7359C6.7287 14.088 7.29952 14.088 7.6519 13.7359L13.7359 7.65193C14.088 7.2997 14.088 6.72841 13.7359 6.37633Z" fill="#DE4C36"/>
</svg>
