<svg width="14" height="14" viewBox="0 0 14 14" fill="none" xmlns="http://www.w3.org/2000/svg">
<g id="symbol">
<path id="Shape" fill-rule="evenodd" clip-rule="evenodd" d="M1.94377 12.6004L0.820312 0H13.1653L12.0407 12.5984L6.98534 14L1.94377 12.6004Z" fill="#0071BC"/>
<path id="Shape_2" fill-rule="evenodd" clip-rule="evenodd" d="M7.00317 12.928L11.083 11.8056L12.0389 1.04935H7.00317V12.928Z" fill="#29ABE2"/>
<path id="Shape_3" fill-rule="evenodd" clip-rule="evenodd" d="M3.39185 5.67871L3.52718 7.22184L7.00313 5.67871V4.13309L3.39185 5.67871Z" fill="#B3B3B3"/>
<path id="Shape_4" fill-rule="evenodd" clip-rule="evenodd" d="M10.8529 2.48318L7.00317 4.13306V5.67869L10.7202 4.02631L10.8529 2.48318Z" fill="#E6E6E6"/>
<path id="Shape_5" fill-rule="evenodd" clip-rule="evenodd" d="M7.00308 9.71627L6.99114 9.71806L5.26732 9.25512L5.1547 8.02426H3.60327L3.81977 10.4491L6.9908 11.3271L7.00308 11.3242V9.71627Z" fill="#E6E6E6"/>
<path id="Shape_6" fill-rule="evenodd" clip-rule="evenodd" d="M7.00317 5.67871V7.22184H8.89048L8.71894 9.23935L7.00317 9.71759V11.3254L10.1637 10.4474L10.5799 5.67871H7.00317Z" fill="white"/>
<path id="Shape_7" fill-rule="evenodd" clip-rule="evenodd" d="M7.00313 5.67871H3.39185L3.52718 7.22184H7.00313V5.67871Z" fill="#E6E6E6"/>
<path id="Shape_8" fill-rule="evenodd" clip-rule="evenodd" d="M7.00308 4.02631V2.48318H6.9874H3.11743L3.25437 4.02631H7.00308Z" fill="#E6E6E6"/>
<path id="Shape_9" fill-rule="evenodd" clip-rule="evenodd" d="M7.00317 2.48318V4.00696V4.02631H10.7202L10.8529 2.48318H7.00317Z" fill="white"/>
</g>
</svg>
